<svg xmlns="http://www.w3.org/2000/svg" xmlns:xlink="http://www.w3.org/1999/xlink" x="0px" y="0px" width="64px" height="64px" viewBox="0 0 64 64"><g stroke-width="2" transform="translate(0, 0)"><path d="M15,12a12,12,0,1,0,2.861,23.643A59.675,59.675,0,0,1,10.945,54H14.8A42.845,42.845,0,0,0,27,24,12,12,0,0,0,15,12Z" fill="none" stroke="#444444" stroke-linecap="square" stroke-miterlimit="10" stroke-width="2" stroke-linejoin="miter"></path><path d="M49,12a12,12,0,1,0,2.861,23.643A59.675,59.675,0,0,1,44.945,54H48.8A42.845,42.845,0,0,0,61,24,12,12,0,0,0,49,12Z" fill="none" stroke="#444444" stroke-linecap="square" stroke-miterlimit="10" stroke-width="2" data-color="color-2" stroke-linejoin="miter"></path></g></svg>